<svg width="18" height="18" viewBox="0 0 18 18" fill="none" xmlns="http://www.w3.org/2000/svg">
<path fill-rule="evenodd" clip-rule="evenodd" d="M14.8645 5.06678L14.9162 5.14304C15.7562 6.42678 16.1526 7.95043 16.0445 9.48083C15.9622 10.7155 15.5551 11.9065 14.8645 12.9332H3.13666C2.35504 11.7706 1.93871 10.4009 1.94113 9C1.94113 7.5433 2.38057 6.1913 3.13666 5.06678H14.8645ZM9.00056 3.99117e-06C6.27347 3.99117e-06 3.83071 1.21241 2.18153 3.12796H2.16343L1.89977 3.4692C0.48103 5.28416 -0.183693 7.57612 0.0437918 9.86859C0.203955 11.5531 0.838552 13.1576 1.87392 14.4959L2.16472 14.872H2.18153C3.02537 15.8543 4.07169 16.6425 5.24872 17.1824C6.42575 17.7223 7.70563 18.0012 9.00056 18C11.7277 18 14.1704 16.7876 15.8196 14.872H15.8364L16.1272 14.4946C16.1775 14.4292 16.227 14.3633 16.2758 14.2969C17.3988 12.7593 18.0027 10.904 18 9C18.0031 6.99232 17.3318 5.0418 16.0936 3.46144L15.8351 3.12796H15.8196C14.9758 2.14566 13.9294 1.35752 12.7524 0.81761C11.5754 0.277696 10.2955 -0.00121694 9.00056 3.99117e-06ZM5.05726 7.52003C5.05726 7.34863 4.98917 7.18425 4.86798 7.06305C4.74679 6.94185 4.58242 6.87376 4.41103 6.87376C4.23963 6.87376 4.07526 6.94185 3.95407 7.06305C3.83288 7.18425 3.76479 7.34863 3.76479 7.52003V7.99698L3.24135 7.82249C3.15998 7.79189 3.07328 7.77802 2.98643 7.78171C2.89958 7.7854 2.81437 7.80658 2.73589 7.84398C2.65742 7.88137 2.58729 7.93422 2.52971 7.99935C2.47214 8.06448 2.42829 8.14056 2.4008 8.22303C2.37331 8.30551 2.36275 8.39268 2.36973 8.47933C2.37672 8.56598 2.40111 8.65034 2.44145 8.72734C2.4818 8.80435 2.53726 8.87242 2.60453 8.92749C2.67179 8.98255 2.74948 9.02348 2.83293 9.04782L3.4029 9.23912L2.957 9.90737C2.9099 9.97798 2.87717 10.0572 2.86068 10.1404C2.84418 10.2237 2.84425 10.3094 2.86087 10.3926C2.8775 10.4759 2.91035 10.555 2.95756 10.6256C3.00476 10.6961 3.0654 10.7566 3.13601 10.8037C3.20662 10.8509 3.28581 10.8836 3.36907 10.9001C3.45232 10.9166 3.53801 10.9165 3.62125 10.8999C3.70448 10.8833 3.78362 10.8504 3.85415 10.8032C3.92469 10.756 3.98523 10.6953 4.03233 10.6247L4.41103 10.0586L4.78843 10.6247C4.88355 10.7673 5.03142 10.8663 5.19951 10.8999C5.36761 10.9335 5.54215 10.8989 5.68475 10.8037C5.82735 10.7086 5.92632 10.5607 5.95989 10.3926C5.99346 10.2245 5.95888 10.05 5.86376 9.90737L5.41786 9.23912L5.98783 9.04782C6.07128 9.02348 6.14897 8.98255 6.21623 8.92749C6.2835 8.87242 6.33896 8.80435 6.37931 8.72734C6.41965 8.65034 6.44404 8.56598 6.45103 8.47933C6.45801 8.39268 6.44745 8.30551 6.41996 8.22303C6.39247 8.14056 6.34862 8.06448 6.29105 7.99935C6.23347 7.93422 6.16334 7.88137 6.08487 7.84398C6.00639 7.80658 5.92118 7.7854 5.83433 7.78171C5.74748 7.77802 5.66078 7.79189 5.57941 7.82249L5.05726 7.99698V7.52003ZM8.95016 6.87376C9.12155 6.87376 9.28592 6.94185 9.40711 7.06305C9.52831 7.18425 9.59639 7.34863 9.59639 7.52003V7.99698L10.1185 7.82249C10.1999 7.79189 10.2866 7.77802 10.3735 7.78171C10.4603 7.7854 10.5455 7.80658 10.624 7.84398C10.7025 7.88137 10.7726 7.93422 10.8302 7.99935C10.8878 8.06448 10.9316 8.14056 10.9591 8.22303C10.9866 8.30551 10.9971 8.39268 10.9902 8.47933C10.9832 8.56598 10.9588 8.65034 10.9184 8.72734C10.8781 8.80435 10.8226 8.87242 10.7554 8.92749C10.6881 8.98255 10.6104 9.02348 10.527 9.04782L9.95699 9.23912L10.4029 9.90737C10.498 10.05 10.5326 10.2245 10.499 10.3926C10.4654 10.5607 10.3665 10.7086 10.2239 10.8037C10.0813 10.8989 9.90674 10.9335 9.73865 10.8999C9.57055 10.8663 9.42268 10.7673 9.32756 10.6247L8.94887 10.0599L8.57017 10.626C8.47505 10.7686 8.32718 10.8676 8.15909 10.9012C7.99099 10.9347 7.81645 10.9002 7.67385 10.805C7.53125 10.7099 7.43228 10.562 7.39871 10.3939C7.36514 10.2258 7.39972 10.0513 7.49484 9.90866L7.94074 9.24041L7.37077 9.04912C7.28732 9.02477 7.20963 8.98385 7.14237 8.92878C7.0751 8.87371 7.01964 8.80564 6.97929 8.72863C6.93895 8.65163 6.91456 8.56728 6.90757 8.48062C6.90059 8.39397 6.91115 8.3068 6.93864 8.22433C6.96613 8.14185 7.00998 8.06577 7.06755 8.00064C7.12513 7.93551 7.19525 7.88267 7.27373 7.84527C7.35221 7.80787 7.43742 7.7867 7.52427 7.783C7.61112 7.77931 7.69782 7.79318 7.77919 7.82378L8.30263 7.99828V7.52003C8.30263 7.34863 8.37072 7.18425 8.49191 7.06305C8.6131 6.94185 8.77877 6.87376 8.95016 6.87376ZM14.1342 7.52003C14.1342 7.34863 14.0661 7.18425 13.945 7.06305C13.8238 6.94185 13.6594 6.87376 13.488 6.87376C13.3166 6.87376 13.1522 6.94185 13.031 7.06305C12.9099 7.18425 12.8418 7.34863 12.8418 7.52003V7.99698L12.3196 7.82249C12.2382 7.79189 12.1515 7.77802 12.0647 7.78171C11.9778 7.7854 11.8926 7.80658 11.8142 7.84398C11.7357 7.88137 11.6656 7.93422 11.608 7.99935C11.5504 8.06448 11.5066 8.14056 11.4791 8.22303C11.4516 8.30551 11.441 8.39268 11.448 8.47933C11.455 8.56598 11.4794 8.65034 11.5197 8.72734C11.5601 8.80435 11.6155 8.87242 11.6828 8.92749C11.7501 8.98255 11.8277 9.02348 11.9112 9.04782L12.4812 9.23912L12.0353 9.90737C11.9401 10.05 11.9056 10.2245 11.9391 10.3926C11.9727 10.5607 12.0717 10.7086 12.2143 10.8037C12.3569 10.8989 12.5314 10.9335 12.6995 10.8999C12.8676 10.8663 13.0155 10.7673 13.1106 10.6247L13.4893 10.0586L13.8667 10.6247C13.9138 10.6953 13.9743 10.756 14.0449 10.8032C14.1154 10.8504 14.1945 10.8833 14.2778 10.8999C14.361 10.9165 14.4467 10.9166 14.53 10.9001C14.6132 10.8836 14.6924 10.8509 14.763 10.8037C14.8336 10.7566 14.8943 10.6961 14.9415 10.6256C14.9887 10.555 15.0215 10.4759 15.0381 10.3926C15.0548 10.3094 15.0548 10.2237 15.0383 10.1404C15.0219 10.0572 14.9891 9.97798 14.942 9.90737L14.4961 9.23912L15.0661 9.04782C15.2225 8.98899 15.3501 8.87181 15.422 8.72091C15.4939 8.57001 15.5045 8.39712 15.4517 8.23854C15.3988 8.07996 15.2866 7.94804 15.1385 7.87046C14.9905 7.79288 14.8181 7.77569 14.6577 7.82249L14.1342 7.99698V7.52003Z" fill="black"/>
</svg>
