<svg width="52" height="33" viewBox="0 0 52 33" fill="none" xmlns="http://www.w3.org/2000/svg">
<path d="M51.6904 27.9703C51.7211 28.6184 51.6241 29.2691 51.4021 29.8814C51.178 30.5241 50.8217 31.1125 50.356 31.6088C49.3813 32.41 48.1617 32.8514 46.9012 32.8642H39.938C39.4102 32.926 38.8754 32.8764 38.368 32.7185C37.8606 32.5606 37.392 32.2979 36.9926 31.9475C36.5931 31.5971 36.2716 31.1667 36.0489 30.6843C35.8263 30.2018 35.7074 29.6779 35.6999 29.1466V26.5338C35.7337 26.2189 35.6789 25.9008 35.5417 25.6153C35.4421 25.3904 35.3 25.1868 35.1232 25.0156C34.3082 24.6141 33.4138 24.3997 32.5054 24.388C30.773 24.0934 29.0261 23.8924 27.2721 23.7858C24.2537 23.5766 21.225 23.8623 18.2958 24.6227C18.0172 24.6513 17.753 24.7603 17.5354 24.9366C17.3464 25.082 17.1943 25.2699 17.0915 25.4851C16.9194 26.2843 16.8575 27.1033 16.9078 27.9193C16.995 28.5416 16.9507 29.1753 16.7776 29.7794C16.5958 30.394 16.3026 30.97 15.9127 31.4787C15.0502 32.3182 13.8969 32.7851 12.6952 32.7877H7.09451C6.22263 32.8387 5.34851 32.8387 4.47663 32.7877C3.90801 32.7509 3.35424 32.5907 2.85384 32.3182C2.37473 32.0495 1.94919 31.6948 1.59848 31.272C0.936741 30.2077 0.633585 28.9593 0.733507 27.7101C0.736317 26.1096 1.0758 24.5276 1.72991 23.0668C2.38401 21.6061 3.33811 20.2993 4.53021 19.2313C6.79953 17.1244 9.46954 15.4957 12.3813 14.442C13.0804 14.1614 13.7974 13.9241 14.5246 13.7353C18.1276 12.7181 21.8545 12.2072 25.5983 12.2171C30.3034 12.0283 35.0033 12.7019 39.4685 14.2073C41.8976 15.0723 44.1812 16.2996 46.2454 17.8433C48.498 19.3845 50.2393 21.5629 51.2465 24.0996C51.5578 25.3652 51.7057 26.6665 51.6904 27.9729M35.4116 7.73913C35.1537 7.74056 34.898 7.69052 34.6597 7.59194C34.4214 7.49336 34.2051 7.34823 34.0235 7.16504C32.9914 6.1429 31.775 5.32559 30.4386 4.75638C27.7194 3.65621 24.679 3.65621 21.9598 4.75638C20.6151 5.32564 19.3895 6.14273 18.3468 7.16504C18.1662 7.34981 17.9505 7.49663 17.7124 7.59687C17.4742 7.69711 17.2184 7.74875 16.9601 7.74875C16.7017 7.74875 16.4459 7.69711 16.2078 7.59687C15.9696 7.49663 15.7539 7.34981 15.5733 7.16504C15.2056 6.79668 14.9991 6.29747 14.9991 5.77699C14.9991 5.25652 15.2056 4.75731 15.5733 4.38895C18.3898 1.57843 22.2063 0 26.1852 0C30.1641 0 33.9805 1.57843 36.7971 4.38895C36.9822 4.5696 37.1294 4.78547 37.2299 5.02385C37.3303 5.26223 37.3821 5.5183 37.3821 5.77699C37.3821 6.03568 37.3303 6.29176 37.2299 6.53014C37.1294 6.76852 36.9822 6.98439 36.7971 7.16504C36.6167 7.34909 36.401 7.49481 36.1629 7.59346C35.9248 7.69211 35.6693 7.74166 35.4116 7.73913Z" fill="#FF0000"/>
</svg>
