<svg width="43" height="45" viewBox="0 0 43 45" fill="none" xmlns="http://www.w3.org/2000/svg">
<path fill-rule="evenodd" clip-rule="evenodd" d="M38.8349 30.2651C39.4453 30.4286 40.0957 30.343 40.643 30.027C41.1903 29.711 41.5897 29.1906 41.7532 28.5802C43.3343 22.6793 42.5066 16.3921 39.4521 11.1016C36.3976 5.81107 31.3666 1.95062 25.4658 0.369502C24.8554 0.205938 24.205 0.291565 23.6577 0.607546C23.1104 0.923528 22.711 1.44398 22.5475 2.05441C22.3839 2.66484 22.4695 3.31524 22.7855 3.86254C23.1015 4.40983 23.6219 4.80919 24.2324 4.97275C28.9123 6.22674 32.9024 9.28848 35.325 13.4844C37.7475 17.6803 38.404 22.6668 37.15 27.3467C36.9864 27.9572 37.072 28.6076 37.388 29.1549C37.704 29.7021 38.2245 30.1015 38.8349 30.2651ZM1.05072 16.6083C0.45262 14.7429 0.510982 12.729 1.2161 10.9014C1.92122 9.0738 3.23062 7.54259 4.92662 6.56232L6.40525 5.70864C7.06668 5.33148 7.85018 5.23048 8.58563 5.42754C9.32109 5.62461 9.94912 6.10383 10.3334 6.76117L13.8971 12.9787C14.2738 13.6344 14.3754 14.4127 14.1797 15.1431C13.9839 15.8735 13.5069 16.4966 12.8528 16.8762C12.1955 17.2604 11.7163 17.8884 11.5192 18.6239C11.3221 19.3593 11.4231 20.1428 11.8003 20.8043L17.529 30.7266C17.9132 31.384 18.5412 31.8632 19.2767 32.0603C20.0122 32.2573 20.7957 32.1563 21.4571 31.7792C22.1128 31.4025 22.891 31.3009 23.6214 31.4967C24.3518 31.6924 24.975 32.1694 25.3545 32.8235L28.9983 38.8652C29.3755 39.5266 29.4765 40.3101 29.2794 41.0455C29.0823 41.781 28.6031 42.409 27.9458 42.7933L26.4671 43.6469C24.7827 44.6547 22.8036 45.0542 20.8601 44.7788C18.9166 44.5035 17.1263 43.57 15.788 42.1341C9.27735 34.6541 4.2732 25.9867 1.05072 16.6083ZM32.6169 27.1649C32.4533 27.7753 32.054 28.2958 31.5067 28.6117C30.9594 28.9277 30.309 29.0134 29.6985 28.8498C29.0881 28.6862 28.5677 28.2869 28.2517 27.7396C27.9357 27.1923 27.8501 26.5419 28.0136 25.9314C28.7224 23.2863 28.3514 20.4678 26.9821 18.0962C25.6129 15.7246 23.3576 13.9941 20.7124 13.2853C20.102 13.1217 19.5815 12.7224 19.2655 12.1751C18.9495 11.6278 18.8639 10.9774 19.0275 10.3669C19.191 9.75652 19.5904 9.23607 20.1377 8.92008C20.685 8.6041 21.3354 8.51848 21.9458 8.68204C25.8119 9.71794 29.1081 12.2472 31.1093 15.7134C33.1105 19.1796 33.6528 23.2988 32.6169 27.1649Z" fill="#14FF48"/>
</svg>
