<svg width="26" height="26" viewBox="0 0 26 26" fill="none" xmlns="http://www.w3.org/2000/svg">
<path d="M24.4833 26C21.4741 26 18.5009 25.3442 15.5639 24.0327C12.6269 22.7211 9.95463 20.8611 7.54722 18.4528C5.13982 16.0444 3.28033 13.3722 1.96878 10.4361C0.657222 7.50004 0.000962963 4.52689 0 1.51667C0 1.08333 0.144444 0.722222 0.433333 0.433333C0.722222 0.144444 1.08333 0 1.51667 0H7.36667C7.7037 0 8.00463 0.114592 8.26944 0.343778C8.53426 0.572963 8.69074 0.843555 8.73889 1.15556L9.67778 6.21111C9.72593 6.5963 9.71389 6.9213 9.64167 7.18611C9.56944 7.45093 9.43704 7.67963 9.24444 7.87222L5.74167 11.4111C6.22315 12.3019 6.79467 13.1623 7.45622 13.9923C8.11778 14.8224 8.84626 15.6231 9.64167 16.3944C10.388 17.1407 11.1704 17.8331 11.9889 18.4716C12.8074 19.11 13.6741 19.6936 14.5889 20.2222L17.9833 16.8278C18.2 16.6111 18.4831 16.4489 18.8327 16.341C19.1822 16.2331 19.525 16.2028 19.8611 16.25L24.8444 17.2611C25.1815 17.3574 25.4583 17.5322 25.675 17.7854C25.8917 18.0387 26 18.3213 26 18.6333V24.4833C26 24.9167 25.8556 25.2778 25.5667 25.5667C25.2778 25.8556 24.9167 26 24.4833 26Z" fill="black"/>
</svg>
