<svg width="430" height="666" viewBox="0 0 430 666" fill="none" xmlns="http://www.w3.org/2000/svg">
<rect y="66" width="432" height="600" fill="url(#paint0_linear_166_134)"/>
<path d="M181 55.5C181 86.1518 155.033 111 123 111C90.9675 111 65 86.1518 65 55.5C65 24.8482 90.9675 0 123 0C155.033 0 181 24.8482 181 55.5Z" fill="#D5EDEE"/>
<path d="M58 323.5C58 354.152 32.0325 379 0 379C-32.0325 379 -58 354.152 -58 323.5C-58 292.848 -32.0325 268 0 268C32.0325 268 58 292.848 58 323.5Z" fill="#D5EDEE"/>
<path d="M98 658.5C98 689.152 72.0325 714 40 714C7.96749 714 -18 689.152 -18 658.5C-18 627.848 7.96749 603 40 603C72.0325 603 98 627.848 98 658.5Z" fill="#D5EDEE"/>
<path d="M496 520.5C496 551.152 470.033 576 438 576C405.967 576 380 551.152 380 520.5C380 489.848 405.967 465 438 465C470.033 465 496 489.848 496 520.5Z" fill="#D5EDEE"/>
<path d="M496 126.5C496 157.152 470.033 182 438 182C405.967 182 380 157.152 380 126.5C380 95.8482 405.967 71 438 71C470.033 71 496 95.8482 496 126.5Z" fill="#D5EDEE"/>
<defs>
<linearGradient id="paint0_linear_166_134" x1="2.35353e-07" y1="90.9453" x2="667.185" y2="143.836" gradientUnits="userSpaceOnUse">
<stop offset="0.0439893" stop-color="#6DC7E7" stop-opacity="0.08"/>
<stop offset="0.702732" stop-color="white" stop-opacity="0.674796"/>
<stop offset="1" stop-color="#949494"/>
</linearGradient>
</defs>
</svg>
