<svg width="28" height="30" viewBox="0 0 28 30" fill="none" xmlns="http://www.w3.org/2000/svg">
<path d="M14 22.8571C14.9283 22.8571 15.8185 22.5561 16.4749 22.0203C17.1313 21.4845 17.5 20.7578 17.5 20C17.5 19.2422 17.1313 18.5155 16.4749 17.9797C15.8185 17.4439 14.9283 17.1429 14 17.1429C13.0717 17.1429 12.1815 17.4439 11.5251 17.9797C10.8687 18.5155 10.5 19.2422 10.5 20C10.5 20.7578 10.8687 21.4845 11.5251 22.0203C12.1815 22.5561 13.0717 22.8571 14 22.8571ZM24.5 10C25.4283 10 26.3185 10.301 26.9749 10.8368C27.6313 11.3727 28 12.0994 28 12.8571V27.1429C28 27.9006 27.6313 28.6273 26.9749 29.1632C26.3185 29.699 25.4283 30 24.5 30H3.5C2.57174 30 1.6815 29.699 1.02513 29.1632C0.368749 28.6273 0 27.9006 0 27.1429V12.8571C0 12.0994 0.368749 11.3727 1.02513 10.8368C1.6815 10.301 2.57174 10 3.5 10H5.25V7.14286C5.25 5.24845 6.17187 3.43164 7.81282 2.09209C9.45376 0.752549 11.6794 0 14 0C15.1491 0 16.2869 0.184756 17.3485 0.543718C18.4101 0.90268 19.3747 1.42882 20.1872 2.09209C20.9997 2.75537 21.6442 3.54279 22.0839 4.4094C22.5237 5.27602 22.75 6.20484 22.75 7.14286V10H24.5ZM14 2.85714C12.6076 2.85714 11.2723 3.30867 10.2877 4.1124C9.30312 4.91613 8.75 6.00622 8.75 7.14286V10H19.25V7.14286C19.25 6.00622 18.6969 4.91613 17.7123 4.1124C16.7277 3.30867 15.3924 2.85714 14 2.85714Z" fill="black" fill-opacity="0.5"/>
</svg>
