<svg width="90" height="90" viewBox="0 0 90 90" fill="none" xmlns="http://www.w3.org/2000/svg">
<path d="M76.1586 66.405C70.8974 72.1088 62.9361 75 52.4999 75L48.7499 75L48.7499 64.4287L51.7649 63.825C56.9024 62.7975 60.4761 60.7763 62.3886 57.81C63.3865 56.212 63.9525 54.3823 64.0311 52.5L52.4999 52.5C51.5053 52.5 50.5515 52.1049 49.8482 51.4017C49.1449 50.6984 48.7499 49.7446 48.7499 48.75L48.7499 22.5C48.7499 18.3638 52.1136 15 56.2499 15L78.7499 15C79.7444 15 80.6983 15.3951 81.4015 16.0984C82.1048 16.8016 82.4999 17.7554 82.4999 18.75L82.4999 37.5L82.4886 48.4463C82.5224 48.8625 83.2349 58.725 76.1586 66.405ZM14.9999 15L37.4999 15C38.4944 15 39.4482 15.3951 40.1515 16.0984C40.8548 16.8016 41.2499 17.7554 41.2499 18.75L41.2499 37.5L41.2386 48.4462C41.2724 48.8625 41.9849 58.725 34.9086 66.405C29.6474 72.1087 21.6861 75 11.2498 75L7.49985 75L7.49985 64.4287L10.5148 63.825C15.6524 62.7975 19.2261 60.7762 21.1386 57.81C22.1365 56.212 22.7025 54.3823 22.7811 52.5L11.2498 52.5C10.2553 52.5 9.30145 52.1049 8.59819 51.4016C7.89493 50.6984 7.49985 49.7446 7.49985 48.75L7.49985 22.5C7.49985 18.3638 10.8636 15 14.9999 15Z" fill="#CCCCCC"/>
</svg>
