<svg width="16" height="15" viewBox="0 0 16 15" fill="none" xmlns="http://www.w3.org/2000/svg">
<path d="M6.84326 12.4866C8.22855 12.4864 9.57393 12.0226 10.6652 11.1693L14.096 14.6L15.1996 13.4965L11.7687 10.0658C12.6225 8.97451 13.0866 7.6289 13.0869 6.24332C13.0869 2.80091 10.2859 0 6.84326 0C3.40067 0 0.599609 2.80091 0.599609 6.24332C0.599609 9.68573 3.40067 12.4866 6.84326 12.4866ZM6.84326 1.56083C9.42579 1.56083 11.526 3.66093 11.526 6.24332C11.526 8.82571 9.42579 10.9258 6.84326 10.9258C4.26073 10.9258 2.16052 8.82571 2.16052 6.24332C2.16052 3.66093 4.26073 1.56083 6.84326 1.56083Z" fill="black" fill-opacity="0.7"/>
</svg>
