<svg width="20" height="16" viewBox="0 0 20 16" fill="none" xmlns="http://www.w3.org/2000/svg">
<path d="M18 0C18.5304 0 19.0391 0.210714 19.4142 0.585786C19.7893 0.960859 20 1.46957 20 2V14C20 14.5304 19.7893 15.0391 19.4142 15.4142C19.0391 15.7893 18.5304 16 18 16H2C1.46957 16 0.960859 15.7893 0.585786 15.4142C0.210714 15.0391 0 14.5304 0 14V2C0 1.46957 0.210714 0.960859 0.585786 0.585786C0.960859 0.210714 1.46957 0 2 0H18ZM18 2H2V14H18V2ZM6.5 4C7.16544 3.99978 7.81206 4.2208 8.33813 4.6283C8.8642 5.0358 9.23986 5.60664 9.406 6.251C9.47182 6.49884 9.43992 6.7625 9.31688 6.98749C9.19385 7.21248 8.98908 7.3816 8.7449 7.45992C8.50072 7.53823 8.23578 7.51974 8.00484 7.40828C7.7739 7.29682 7.5946 7.10089 7.504 6.861L7.469 6.749C7.40872 6.51256 7.26408 6.30632 7.06232 6.16911C6.86055 6.03191 6.61558 5.9732 6.37354 6.00406C6.1315 6.03491 5.90909 6.1532 5.7482 6.33663C5.58731 6.52007 5.49903 6.756 5.5 7V9C5.49968 9.23406 5.58148 9.46082 5.73114 9.64078C5.88081 9.82074 6.08886 9.9425 6.31906 9.98485C6.54925 10.0272 6.78702 9.98746 6.99093 9.87255C7.19484 9.75764 7.35199 9.57485 7.435 9.356L7.469 9.251C7.50142 9.12352 7.55868 9.00368 7.63749 8.89837C7.71629 8.79305 7.81511 8.70431 7.92826 8.63724C8.04142 8.57017 8.1667 8.52608 8.29692 8.50751C8.42714 8.48893 8.55975 8.49623 8.68715 8.52898C8.81455 8.56173 8.93423 8.6193 9.03934 8.69838C9.14446 8.77746 9.23294 8.87651 9.29971 8.98984C9.36649 9.10317 9.41025 9.22856 9.42849 9.35883C9.44673 9.4891 9.43909 9.62169 9.406 9.749C9.22446 10.4571 8.79066 11.0745 8.18607 11.4853C7.58148 11.8961 6.84771 12.072 6.12256 11.9801C5.39741 11.8881 4.73079 11.5346 4.24789 10.9858C3.76499 10.4371 3.49905 9.73095 3.5 9V7C3.5 6.20435 3.81607 5.44129 4.37868 4.87868C4.94129 4.31607 5.70435 4 6.5 4ZM13.5 4C14.1654 3.99978 14.8121 4.2208 15.3381 4.6283C15.8642 5.0358 16.2399 5.60664 16.406 6.251C16.4718 6.49884 16.4399 6.7625 16.3169 6.98749C16.1938 7.21248 15.9891 7.3816 15.7449 7.45992C15.5007 7.53823 15.2358 7.51974 15.0048 7.40828C14.7739 7.29682 14.5946 7.10089 14.504 6.861L14.469 6.749C14.4098 6.52366 14.2738 6.32604 14.0846 6.19018C13.8953 6.05432 13.6646 5.98873 13.4321 6.00473C13.1997 6.02072 12.9801 6.11729 12.8113 6.27779C12.6424 6.4383 12.5348 6.65268 12.507 6.884L12.5 7V9C12.4997 9.23406 12.5815 9.46082 12.7311 9.64078C12.8808 9.82074 13.0889 9.9425 13.3191 9.98485C13.5493 10.0272 13.787 9.98746 13.9909 9.87255C14.1948 9.75764 14.352 9.57485 14.435 9.356L14.469 9.251C14.5014 9.12352 14.5587 9.00368 14.6375 8.89837C14.7163 8.79305 14.8151 8.70431 14.9283 8.63724C15.0414 8.57017 15.1667 8.52608 15.2969 8.50751C15.4271 8.48893 15.5597 8.49623 15.6871 8.52898C15.8145 8.56173 15.9342 8.6193 16.0393 8.69838C16.1445 8.77746 16.2329 8.87651 16.2997 8.98984C16.3665 9.10317 16.4102 9.22856 16.4285 9.35883C16.4467 9.4891 16.4391 9.62169 16.406 9.749C16.2276 10.4416 15.8076 11.0477 15.2217 11.4579C14.6359 11.8682 13.9227 12.0556 13.2109 11.9865C12.499 11.9174 11.8353 11.5962 11.3393 11.0809C10.8434 10.5655 10.5478 9.88999 10.506 9.176L10.5 9V7C10.5 6.20435 10.8161 5.44129 11.3787 4.87868C11.9413 4.31607 12.7044 4 13.5 4Z" fill="black"/>
</svg>
